<svg id="logo" xmlns="http://www.w3.org/2000/svg" width="116.219" height="21.906" viewBox="0 0 116.219 21.906">
  <defs>
    <style>
      .cls-1 {
        fill: #fff;
      }

      .cls-1, .cls-2 {
        fill-rule: evenodd;
      }

      .cls-2 {
        fill: #ec6a8f;
      }
    </style>
  </defs>
  <path id="ROVA" class="cls-1" d="M470.887,89.256v0.3l1.8,0.45v19.5l-1.8.45v0.3h6.15v-0.3l-1.8-.45v-9.75h1.2a6.293,6.293,0,0,1,1.74.21,2.8,2.8,0,0,1,1.185.66,3.142,3.142,0,0,1,.735,1.155,7.232,7.232,0,0,1,.39,1.725l0.6,5.25a2.134,2.134,0,0,0,.735,1.365,2.66,2.66,0,0,0,2.7.375,3.086,3.086,0,0,0,.7-0.45,2.136,2.136,0,0,0,.51-0.69l-0.3-.3a1.487,1.487,0,0,1-.27.39,1.935,1.935,0,0,1-.315.255,0.59,0.59,0,0,1-.315.105,0.624,0.624,0,0,1-.48-0.24,1.474,1.474,0,0,1-.27-0.81l-0.6-5.25a3.531,3.531,0,0,0-.96-2.19,5.911,5.911,0,0,0-1.74-1.23,8.157,8.157,0,0,0-2.4-.63,9.27,9.27,0,0,0,2.91-.72,7.276,7.276,0,0,0,1.08-.6,3.965,3.965,0,0,0,.945-0.885,4.622,4.622,0,0,0,.66-1.2,4.374,4.374,0,0,0,.255-1.545,4.517,4.517,0,0,0-1.83-3.69,7.1,7.1,0,0,0-2.34-1.14,11.743,11.743,0,0,0-3.33-.42h-5.55Zm9,8.7a4.669,4.669,0,0,1-3.45,1.2h-1.2v-9.3h1.2A4.89,4.89,0,0,1,479.887,97.956Zm20.234-3.015a11.1,11.1,0,0,0-1.62-3.42,6.872,6.872,0,0,0-2.265-2.04,5.154,5.154,0,0,0-5.1,0,6.872,6.872,0,0,0-2.265,2.04,11.1,11.1,0,0,0-1.62,3.42,19.156,19.156,0,0,0,0,9.63,11.094,11.094,0,0,0,1.62,3.42,6.871,6.871,0,0,0,2.265,2.04,5.154,5.154,0,0,0,5.1,0,6.871,6.871,0,0,0,2.265-2.04,11.094,11.094,0,0,0,1.62-3.42A19.156,19.156,0,0,0,500.121,94.941Zm-2.61,9.93a11.991,11.991,0,0,1-.99,3.225,4.214,4.214,0,0,1-1.365,1.68,2.491,2.491,0,0,1-2.94,0,4.214,4.214,0,0,1-1.365-1.68,11.991,11.991,0,0,1-.99-3.225,35.072,35.072,0,0,1,0-10.23,11.992,11.992,0,0,1,.99-3.225,4.217,4.217,0,0,1,1.365-1.68,2.491,2.491,0,0,1,2.94,0,4.217,4.217,0,0,1,1.365,1.68,11.992,11.992,0,0,1,.99,3.225A35.072,35.072,0,0,1,497.511,104.871Zm5.325-14.865,6.3,20.7h0.45l5.55-20.4,1.95-.75v-0.3h-4.5v0.3l1.95,0.75-4.2,15.45-4.8-15.75,1.8-.45v-0.3h-6.3v0.3Zm24.75,19.5-1.8.45v0.3h6.3v-0.3l-1.8-.45-6.3-20.7h-0.45l-5.85,20.4-1.95.75v0.3h4.5v-0.3l-1.95-.75,1.5-5.1h6.15Zm-4.83-15.9,3,9.93h-5.82Z" transform="translate(-415.875 -88.813)"/>
  <path id="KADI" class="cls-2" d="M421.947,99.516l4.74,9.99-1.8.45v0.3h6.45v-0.3l-1.8-.45-6.03-12.69,3.78-6.51,1.95-.75v-0.3h-4.5v0.3l1.95,0.75-6.45,11.1v-11.4l1.8-.45v-0.3h-6.15v0.3l1.8,0.45v19.5l-1.8.45v0.3h6.15v-0.3l-1.8-.45v-7.05Zm19.89,9.99-1.8.45v0.3h6.3v-0.3l-1.8-.45-6.3-20.7h-0.45l-5.85,20.4-1.95.75v0.3h4.5v-0.3l-1.95-.75,1.5-5.1h6.15Zm-4.83-15.9,3,9.93h-5.82Zm9.479-4.35v0.3l1.8,0.45v19.5l-1.8.45v0.3h5.25a9.253,9.253,0,0,0,3.645-.7,8.2,8.2,0,0,0,2.9-2.055,9.57,9.57,0,0,0,1.92-3.3,14.534,14.534,0,0,0,0-8.85,9.571,9.571,0,0,0-1.92-3.3,8.369,8.369,0,0,0-2.9-2.07,9.086,9.086,0,0,0-3.645-.72h-5.25Zm5.25,0.6a5.576,5.576,0,0,1,2.445.555,5.3,5.3,0,0,1,2.01,1.755,9.416,9.416,0,0,1,1.35,3.075,20.839,20.839,0,0,1,0,9.03,9.412,9.412,0,0,1-1.35,3.075,5.29,5.29,0,0,1-2.01,1.755,5.575,5.575,0,0,1-2.445.555h-0.9v-19.8h0.9Zm15.3,0.15,1.8-.45v-0.3h-6.15v0.3l1.8,0.45v19.5l-1.8.45v0.3h6.15v-0.3l-1.8-.45v-19.5Z" transform="translate(-415.875 -88.813)"/>
</svg>
